<svg width="50" height="50" viewBox="0 0 50 50" fill="none" xmlns="http://www.w3.org/2000/svg">
<path d="M10.4229 9.70832C10.4229 6.59165 12.9875 3.86665 16.3 4.19374C27.0859 5.26228 37.0788 10.3375 44.3042 18.4167C46.5333 20.9021 45.8396 24.5917 43.3062 26.4271L42.425 27.0667L41.6687 25.9417L41.6521 25.9187C35.0062 16.7375 24.1937 10.7625 11.9854 10.7625H10.4229V9.70832ZM39.1062 27.7292L39.8937 28.9021L31.6708 34.8708L31.25 35.1833V39.5625C31.25 40.115 31.0305 40.6449 30.6398 41.0356C30.2491 41.4263 29.7192 41.6458 29.1667 41.6458C28.6141 41.6458 28.0842 41.4263 27.6935 41.0356C27.3028 40.6449 27.0833 40.115 27.0833 39.5625V39.4375C27.05 39.1753 26.9182 38.9355 26.7147 38.7668C26.5112 38.5982 26.2512 38.5132 25.9873 38.5291C25.7235 38.5449 25.4755 38.6606 25.2938 38.8524C25.112 39.0443 25.0099 39.2982 25.0083 39.5625V42.6896C25.0084 43.2241 24.803 43.7382 24.4346 44.1255C24.0663 44.5129 23.5631 44.7438 23.0293 44.7706C22.4954 44.7973 21.9717 44.6179 21.5665 44.2693C21.1612 43.9207 20.9055 43.4298 20.8521 42.8979L17.8521 45.0646C14.75 47.3021 10.4146 45.0875 10.4167 41.2604L10.4229 13.8854H11.9854C23.1396 13.8854 33.0187 19.3375 39.1062 27.7292ZM18.7583 22.8958C19.3109 22.8958 19.8408 22.6763 20.2315 22.2856C20.6222 21.8949 20.8417 21.365 20.8417 20.8125C20.8417 20.26 20.6222 19.73 20.2315 19.3393C19.8408 18.9486 19.3109 18.7292 18.7583 18.7292C18.2058 18.7292 17.6759 18.9486 17.2852 19.3393C16.8945 19.73 16.675 20.26 16.675 20.8125C16.675 21.365 16.8945 21.8949 17.2852 22.2856C17.6759 22.6763 18.2058 22.8958 18.7583 22.8958ZM27.0917 29.1417C27.6442 29.1417 28.1741 28.9222 28.5648 28.5315C28.9555 28.1408 29.175 27.6109 29.175 27.0583C29.175 26.5058 28.9555 25.9759 28.5648 25.5852C28.1741 25.1945 27.6442 24.975 27.0917 24.975C26.5391 24.975 26.0092 25.1945 25.6185 25.5852C25.2278 25.9759 25.0083 26.5058 25.0083 27.0583C25.0083 27.6109 25.2278 28.1408 25.6185 28.5315C26.0092 28.9222 26.5391 29.1417 27.0917 29.1417ZM18.7583 35.3875C19.3109 35.3875 19.8408 35.168 20.2315 34.7773C20.6222 34.3866 20.8417 33.8567 20.8417 33.3042C20.8417 32.7516 20.6222 32.2217 20.2315 31.831C19.8408 31.4403 19.3109 31.2208 18.7583 31.2208C18.2058 31.2208 17.6759 31.4403 17.2852 31.831C16.8945 32.2217 16.675 32.7516 16.675 33.3042C16.675 33.8567 16.8945 34.3866 17.2852 34.7773C17.6759 35.168 18.2058 35.3875 18.7583 35.3875Z" fill="white"/>
</svg>
