<svg width="45" height="45" viewBox="0 0 45 45" fill="none" xmlns="http://www.w3.org/2000/svg">
<path d="M22.5 3.75C12.3356 3.75 3.75 12.3356 3.75 22.5C3.75 32.6644 12.3356 41.25 22.5 41.25C32.6644 41.25 41.25 32.6644 41.25 22.5C41.25 12.3356 32.6644 3.75 22.5 3.75ZM22.5 13.125C25.7381 13.125 28.125 15.51 28.125 18.75C28.125 21.99 25.7381 24.375 22.5 24.375C19.2638 24.375 16.875 21.99 16.875 18.75C16.875 15.51 19.2638 13.125 22.5 13.125ZM12.9263 31.4475C14.6081 28.9725 17.4131 27.3225 20.625 27.3225H24.375C27.5888 27.3225 30.3919 28.9725 32.0738 31.4475C29.6775 34.0125 26.2781 35.625 22.5 35.625C18.7219 35.625 15.3225 34.0125 12.9263 31.4475Z" fill="white"/>
</svg>
