<svg width="40" height="40" viewBox="0 0 40 40" fill="none" xmlns="http://www.w3.org/2000/svg">
<path d="M23.206 19.666L18.714 17.57C18.322 17.3881 18 17.592 18 18.026V21.9741C18 22.4081 18.322 22.612 18.714 22.43L23.204 20.334C23.598 20.15 23.598 19.85 23.206 19.666ZM20 0.800049C9.39599 0.800049 0.799988 9.39605 0.799988 20C0.799988 30.604 9.39599 39.2001 20 39.2001C30.604 39.2001 39.2 30.604 39.2 20C39.2 9.39605 30.604 0.800049 20 0.800049ZM20 27.8C10.172 27.8 9.99999 26.914 9.99999 20C9.99999 13.0861 10.172 12.2 20 12.2C29.828 12.2 30 13.0861 30 20C30 26.914 29.828 27.8 20 27.8Z" fill="#EF0040"/>
</svg>
